<svg width="372" height="93" viewBox="0 0 372 93" fill="none" xmlns="http://www.w3.org/2000/svg">
<path d="M48 17.152C48 19.2854 47.5307 21.5467 46.5921 23.936C45.7387 26.3254 44.5014 28.6294 42.8801 30.848C41.2587 33.0667 39.3387 35.1574 37.1201 37.12C34.9867 38.9974 32.5974 40.4907 29.952 41.6C32.4267 44.928 34.9867 48.7254 37.632 52.992C40.2774 57.1734 42.9654 61.4827 45.6961 65.92C48.4267 70.272 51.2427 74.5814 54.1441 78.848C57.0454 83.0294 60.0321 86.784 63.104 90.112L58.7521 92.544L43.9041 83.584C40.0641 75.7334 36.1387 68.6507 32.1281 62.336C28.2027 56.0214 23.8934 49.8774 19.2001 43.904C19.0294 43.904 18.9014 43.904 18.816 43.904C18.7307 43.8187 18.6454 43.776 18.56 43.776C17.7067 43.6907 16.8961 43.0934 16.128 41.984C15.4454 40.7894 14.848 39.7227 14.3361 38.784C21.8454 38.272 27.5627 36.736 31.4881 34.176C35.4987 31.616 37.5041 27.264 37.5041 21.12C37.5041 18.7307 36.9494 16.64 35.84 14.848C34.8161 13.056 33.4507 11.6054 31.744 10.496C30.1227 9.38669 28.3307 8.57602 26.368 8.06403C24.4907 7.46669 22.6987 7.16802 20.9921 7.16802C19.2001 7.16802 17.7067 7.25336 16.5121 7.42403C15.4027 7.50936 14.5067 7.80802 13.824 8.32002C13.2267 8.83202 12.8 9.55736 12.544 10.496C12.3734 11.3494 12.288 12.544 12.288 14.08C12.2027 22.8694 12.16 30.976 12.16 38.4C12.16 41.5574 12.16 44.7147 12.16 47.872C12.16 51.0294 12.16 53.9734 12.16 56.704C12.16 59.4347 12.16 61.824 12.16 63.872C12.2454 65.8347 12.288 67.2427 12.288 68.096C12.288 70.2294 12.3734 72.2347 12.544 74.112C12.8 75.9894 13.056 77.6534 13.312 79.104C13.6534 80.8107 13.9947 82.3894 14.3361 83.84C13.9094 84.0107 13.3974 84.096 12.8 84.096C12.288 84.096 11.52 84.096 10.496 84.096C9.47205 84.096 8.14938 84.096 6.52805 84.096C4.99205 84.096 2.98672 84.0107 0.512049 83.84C0.682716 82.4747 0.896049 80.7254 1.15205 78.592C1.32272 76.8 1.49338 74.5814 1.66405 71.936C1.83472 69.2907 1.96272 66.176 2.04805 62.592V24.32C2.04805 22.016 1.92005 19.4987 1.66405 16.768C1.49338 14.0374 1.28005 11.52 1.02405 9.21603C0.682716 6.48536 0.341382 3.79736 4.88758e-05 1.15202C0.597382 1.23736 1.15205 1.32269 1.66405 1.40802C2.17605 1.40802 2.68805 1.45069 3.20005 1.53603C3.79738 1.53603 4.48005 1.53603 5.24805 1.53603C6.10138 1.53603 7.16805 1.53603 8.44805 1.53603L26.6241 2.28882e-05C28.9281 2.28882e-05 31.3174 0.341357 33.792 1.02402C36.352 1.70669 38.6561 2.77335 40.7041 4.22402C42.8374 5.58936 44.5867 7.38136 45.952 9.60002C47.3174 11.7334 48 14.2507 48 17.152ZM113.926 38.4C113.158 39.3387 112.305 40.4054 111.366 41.6C110.513 42.7947 109.574 43.5627 108.55 43.904C107.185 44.3307 105.307 44.8427 102.918 45.44C100.529 46.0374 97.926 46.6774 95.1101 47.36C92.2941 47.9574 89.4354 48.5974 86.534 49.28C83.718 49.9627 81.1154 50.688 78.726 51.456C76.422 52.1387 74.502 52.8214 72.966 53.504C71.5154 54.1867 70.79 54.8267 70.79 55.424C70.79 57.984 71.2594 60.5014 72.198 62.976C73.1367 65.4507 74.5874 67.6694 76.55 69.632C78.598 71.5947 81.2434 73.216 84.486 74.496C87.7287 75.6907 91.6541 76.288 96.2621 76.288C97.2861 76.288 98.4807 76.1174 99.8461 75.776C101.211 75.3494 102.577 74.88 103.942 74.368C105.393 73.7707 106.758 73.1734 108.038 72.576C109.403 71.9787 110.641 71.5094 111.75 71.168C110.299 73.8987 108.763 76.16 107.142 77.952C105.606 79.6587 103.942 81.024 102.15 82.048C100.358 82.9867 98.4807 83.6267 96.5181 83.968C94.5554 84.3947 92.5074 84.608 90.3741 84.608C86.3634 84.608 82.694 83.8827 79.366 82.432C76.038 80.9814 73.1367 79.0187 70.662 76.544C68.1874 74.0694 66.2674 71.168 64.902 67.84C63.5367 64.4267 62.854 60.8 62.854 56.96C62.854 52.352 63.7074 48.0854 65.414 44.16C67.206 40.1494 69.5527 36.6934 72.454 33.792C75.4407 30.8907 78.8114 28.6294 82.566 27.008C86.406 25.3867 90.4167 24.576 94.598 24.576C96.39 24.576 98.1821 24.9174 99.9741 25.6C101.851 26.1974 103.643 27.0934 105.35 28.288C107.057 29.4827 108.635 30.9334 110.086 32.64C111.622 34.3467 112.902 36.2667 113.926 38.4ZM103.814 39.936C101.339 36.2667 98.7794 33.792 96.1341 32.512C93.5741 31.1467 90.8007 30.464 87.8141 30.464C85.5954 30.464 83.462 30.976 81.414 32C79.4514 32.9387 77.702 34.2187 76.166 35.84C74.63 37.376 73.3927 39.2107 72.454 41.344C71.6007 43.392 71.174 45.568 71.174 47.872C71.174 48.2987 71.174 48.5547 71.174 48.64C71.2594 48.64 71.3874 48.7254 71.558 48.896C76.934 47.7014 82.3527 46.3787 87.8141 44.928C93.2754 43.4774 98.6087 41.8134 103.814 39.936ZM207.323 82.944C207.408 83.3707 207.366 83.6267 207.195 83.712C207.11 83.7974 207.067 83.968 207.067 84.224L195.547 84.352C195.376 84.1814 195.206 84.0534 195.035 83.968C194.864 83.8827 194.694 83.7547 194.523 83.584C194.95 80.5974 195.419 77.6107 195.931 74.624C196.443 71.6374 196.742 68.608 196.827 65.536L197.211 45.824C197.211 43.4347 196.784 41.2587 195.931 39.296C195.078 37.248 193.926 35.5414 192.475 34.176C191.024 32.7254 189.36 31.616 187.483 30.848C185.691 30.08 183.814 29.696 181.851 29.696C179.12 29.7814 176.816 30.464 174.939 31.744C173.062 32.9387 171.526 34.4747 170.331 36.352C169.222 38.144 168.411 40.1067 167.899 42.24C167.472 44.3734 167.259 46.3787 167.259 48.256L167.515 70.4L169.307 84.224L157.531 84.48C157.275 84.3094 157.147 83.8827 157.147 83.2L159.195 67.584L158.811 44.032C158.811 41.984 158.342 40.1067 157.403 38.4C156.464 36.6934 155.27 35.2 153.819 33.92C152.454 32.64 150.875 31.6587 149.083 30.976C147.376 30.2934 145.627 29.952 143.835 29.952C141.275 29.952 139.099 30.5067 137.307 31.616C135.515 32.7254 134.022 34.1334 132.827 35.84C131.632 37.4614 130.779 39.2534 130.267 41.216C129.755 43.1787 129.499 45.0134 129.499 46.72L129.883 66.944L131.675 84.096C131.504 84.2667 130.779 84.352 129.499 84.352C128.304 84.4374 126.982 84.48 125.531 84.48C124.08 84.5654 122.715 84.5654 121.435 84.48C120.24 84.48 119.558 84.4374 119.387 84.352C119.643 82.4747 119.942 80.5547 120.283 78.592C120.454 76.9707 120.624 75.2214 120.795 73.344C121.051 71.4667 121.136 69.7174 121.051 68.096L120.667 42.368C120.752 40.576 120.667 38.7414 120.411 36.864C120.24 34.9867 120.027 33.2374 119.771 31.616C119.43 29.7387 119.088 27.904 118.747 26.112L129.243 25.984V32.768L129.883 33.28C133.382 30.208 136.667 27.7334 139.739 25.856C142.811 23.8934 146.096 22.8694 149.595 22.784C151.984 22.784 154.16 23.3387 156.123 24.448C158.171 25.5574 159.92 26.7947 161.371 28.16C162.907 29.44 164.102 30.6774 164.955 31.872C165.894 32.9814 166.448 33.536 166.619 33.536C166.704 33.536 167.515 32.9814 169.051 31.872C170.672 30.7627 172.592 29.568 174.811 28.288C177.115 26.9227 179.547 25.6854 182.107 24.576C184.752 23.4667 187.099 22.912 189.147 22.912C191.451 22.912 193.627 23.4667 195.675 24.576C197.723 25.6 199.515 26.9654 201.051 28.672C202.587 30.2934 203.824 32.128 204.763 34.176C205.702 36.224 206.171 38.144 206.171 39.936L206.555 71.168C206.555 72.3627 206.598 73.6427 206.683 75.008C206.768 76.3734 206.854 77.6534 206.939 78.848C207.024 80.2987 207.152 81.664 207.323 82.944ZM275.481 53.504C275.481 57.5147 274.713 61.44 273.177 65.28C271.726 69.0347 269.593 72.4054 266.777 75.392C264.046 78.2934 260.676 80.5974 256.665 82.304C252.654 84.0107 248.132 84.8214 243.097 84.736C239.342 84.6507 235.844 83.7547 232.601 82.048C229.444 80.3414 226.713 78.1227 224.409 75.392C222.105 72.6614 220.313 69.5894 219.033 66.176C217.753 62.7627 217.113 59.264 217.113 55.68C217.113 52.4374 217.838 48.9814 219.289 45.312C220.74 41.6427 222.788 38.272 225.433 35.2C228.164 32.128 231.449 29.568 235.289 27.52C239.214 25.472 243.609 24.448 248.473 24.448C252.569 24.448 256.281 25.344 259.609 27.136C262.937 28.8427 265.753 31.0614 268.057 33.792C270.446 36.5227 272.281 39.6374 273.561 43.136C274.841 46.6347 275.481 50.0907 275.481 53.504ZM267.289 59.648C267.289 56.4907 266.734 53.2054 265.625 49.792C264.601 46.3787 263.022 43.3067 260.889 40.576C258.756 37.8454 256.11 35.584 252.953 33.792C249.796 32 246.126 31.104 241.945 31.104C239.129 31.104 236.654 31.6587 234.521 32.768C232.473 33.792 230.724 35.2 229.273 36.992C227.822 38.6987 226.713 40.704 225.945 43.008C225.262 45.2267 224.921 47.5307 224.921 49.92C224.921 53.4187 225.518 56.8747 226.713 60.288C227.908 63.7014 229.572 66.7734 231.705 69.504C233.924 72.1494 236.569 74.3254 239.641 76.032C242.713 77.7387 246.126 78.592 249.881 78.592C252.697 78.592 255.172 78.08 257.305 77.056C259.438 76.032 261.23 74.6667 262.681 72.96C264.217 71.168 265.369 69.1627 266.137 66.944C266.905 64.64 267.289 62.208 267.289 59.648ZM320.075 28.8C320.075 28.8854 319.819 29.312 319.307 30.08C318.795 30.7627 318.198 31.5307 317.515 32.384C316.832 33.152 316.15 33.8774 315.467 34.56C314.784 35.1574 314.272 35.456 313.931 35.456C313.59 35.456 313.078 35.3707 312.395 35.2C311.798 35.0294 311.115 34.8587 310.347 34.688C309.664 34.5174 308.939 34.3467 308.171 34.176C307.488 34.0054 306.891 33.92 306.379 33.92C304.075 33.92 302.24 34.4747 300.875 35.584C299.51 36.6934 298.443 38.1014 297.675 39.808C296.907 41.4294 296.395 43.2214 296.139 45.184C295.883 47.1467 295.712 48.9387 295.627 50.56C295.456 53.2907 295.414 56.6187 295.499 60.544C295.584 64.4694 295.712 68.1814 295.883 71.68C296.054 75.8614 296.267 80.128 296.523 84.48C296.352 84.48 296.054 84.4374 295.627 84.352C295.286 84.2667 294.646 84.1814 293.707 84.096C292.854 84.096 291.659 84.0534 290.123 83.968C288.587 83.8827 286.624 83.84 284.235 83.84C284.15 83.84 284.064 83.7974 283.979 83.712C283.894 83.6267 283.851 83.4134 283.851 83.072L286.027 57.728C286.112 56.448 286.155 54.6987 286.155 52.48C286.24 50.176 286.283 47.872 286.283 45.568C286.283 43.1787 286.24 41.0027 286.155 39.04C286.155 37.0774 286.112 35.7547 286.027 35.072C285.942 34.2187 285.856 32.896 285.771 31.104C285.771 29.312 285.558 27.5627 285.131 25.856C287.008 25.9414 288.502 25.984 289.611 25.984C290.72 25.984 291.531 25.984 292.043 25.984C292.64 25.8987 293.067 25.856 293.323 25.856C293.579 25.7707 293.792 25.728 293.963 25.728C294.39 25.728 294.688 25.8134 294.859 25.984C295.115 26.1547 295.328 26.3254 295.499 26.496V35.328L296.011 35.84C297.632 34.6454 299.126 33.4507 300.491 32.256C301.856 31.0614 303.179 29.9947 304.459 29.056C305.739 28.032 307.019 27.2214 308.299 26.624C309.579 26.0267 310.944 25.728 312.395 25.728C313.76 25.728 314.955 25.9414 315.979 26.368C317.003 26.7094 318.368 27.52 320.075 28.8ZM371.029 83.84C367.445 84.1814 363.69 84.1814 359.765 83.84L360.405 54.528H354.261C352.81 54.528 350.976 54.7414 348.757 55.168C346.538 55.5947 344.405 56.32 342.357 57.344C340.309 58.368 338.517 59.776 336.981 61.568C335.53 63.36 334.805 65.5787 334.805 68.224C334.805 70.272 335.232 71.936 336.085 73.216C337.024 74.4107 338.133 75.392 339.413 76.16C340.778 76.8427 342.186 77.312 343.637 77.568C345.173 77.7387 346.538 77.824 347.733 77.824C348.16 77.824 349.354 77.7814 351.317 77.696C353.28 77.5254 355.328 77.312 357.461 77.056C355.669 78.592 354.261 79.9147 353.237 81.024C352.298 82.1334 351.445 83.0294 350.677 83.712C349.909 84.3947 349.098 84.9067 348.245 85.248C347.477 85.5894 346.368 85.76 344.917 85.76C342.869 85.76 340.693 85.504 338.389 84.992C336.085 84.5654 333.952 83.7974 331.989 82.688C330.112 81.4934 328.533 79.9574 327.253 78.08C325.973 76.2027 325.333 73.856 325.333 71.04C325.333 66.944 326.442 63.488 328.661 60.672C330.88 57.7707 333.696 55.3814 337.109 53.504C340.522 51.5414 344.277 50.0907 348.373 49.152C352.554 48.128 356.565 47.4027 360.405 46.976V40.448C360.405 38.4854 359.68 36.9494 358.229 35.84C356.864 34.6454 355.285 33.7494 353.493 33.152C351.701 32.4694 349.952 32.0427 348.245 31.872C346.624 31.616 345.514 31.488 344.917 31.488C344.746 31.488 344.192 31.5307 343.253 31.616C342.4 31.7014 341.333 31.8294 340.053 32C338.773 32.1707 337.365 32.384 335.829 32.64C334.378 32.8107 332.97 33.024 331.605 33.28C334.506 29.6107 337.578 27.2214 340.821 26.112C344.149 25.0027 347.306 24.448 350.293 24.448C351.914 24.448 353.834 24.6614 356.053 25.088C358.272 25.5147 360.405 26.2827 362.453 27.392C364.501 28.5014 366.25 29.9947 367.701 31.872C369.152 33.7494 369.877 36.096 369.877 38.912C369.962 43.9467 370.048 49.1094 370.133 54.4C370.218 59.6907 370.346 64.512 370.517 68.864C370.688 73.984 370.858 78.976 371.029 83.84Z" fill="#EDECEC"/>
</svg>
